<?xml version="1.0" standalone="no"?>
<!DOCTYPE svg PUBLIC "-//W3C//DTD SVG 20010904//EN"
 "http://www.w3.org/TR/2001/REC-SVG-20010904/DTD/svg10.dtd">
<svg version="1.0" xmlns="http://www.w3.org/2000/svg"
 width="700.000000pt" height="700.000000pt" viewBox="0 0 700.000000 700.000000"
 preserveAspectRatio="xMidYMid meet">
<metadata>
Created by potrace 1.11, written by Peter Selinger 2001-2013
</metadata>
<g transform="translate(0.000000,700.000000) scale(0.100000,-0.100000)"
fill="#000000" stroke="none">
<path d="M3278 6995 c-2 -1 -41 -6 -88 -9 -47 -4 -101 -9 -120 -12 -40 -6
-217 -35 -240 -39 -250 -51 -511 -130 -667 -201 -28 -13 -55 -24 -60 -24 -12
0 -267 -130 -353 -180 -367 -212 -704 -500 -958 -816 -95 -117 -115 -144 -175
-231 -249 -362 -454 -832 -531 -1213 -3 -14 -7 -36 -11 -50 -7 -34 -42 -244
-50 -300 -26 -202 -27 -682 0 -829 1 -9 6 -43 10 -76 4 -32 9 -68 11 -80 2
-11 6 -35 9 -54 2 -18 7 -41 9 -50 3 -9 8 -29 11 -46 27 -157 110 -427 190
-622 260 -627 730 -1202 1285 -1568 25 -17 47 -32 50 -35 3 -3 17 -12 32 -20
14 -8 77 -44 140 -80 271 -157 545 -268 860 -349 65 -17 128 -32 140 -35 13
-2 61 -11 108 -20 206 -39 361 -51 635 -50 226 1 366 9 475 29 14 3 43 7 65
10 124 15 341 67 525 127 439 142 882 392 1215 687 362 321 625 661 835 1080
195 389 305 773 355 1241 11 108 13 583 2 640 -3 14 -8 52 -11 85 -4 33 -8 71
-11 85 -2 14 -6 41 -9 60 -204 1296 -1132 2379 -2381 2779 -178 58 -372 105
-520 127 -27 4 -52 8 -55 9 -3 1 -41 5 -85 10 -44 4 -89 10 -100 12 -25 4
-532 12 -537 8z m457 -1380 c341 -52 598 -154 800 -319 163 -135 271 -307 324
-521 67 -267 43 -543 -65 -758 -60 -118 -167 -253 -275 -342 -113 -95 -245
-196 -354 -272 -268 -188 -339 -295 -347 -516 -1 -32 -5 -60 -10 -63 -7 -4
-329 -6 -735 -4 l-73 0 5 128 c3 70 7 143 10 162 2 19 7 59 10 88 9 81 41 175
81 233 70 104 302 304 562 482 55 38 121 90 147 115 64 63 148 193 174 269 65
194 -36 475 -201 559 -72 37 -171 56 -284 56 -162 0 -277 -39 -362 -123 -83
-82 -167 -295 -174 -441 l-3 -63 -417 0 c-432 0 -422 -1 -420 35 2 52 16 189
24 235 5 33 12 74 15 90 8 55 64 226 97 299 74 161 185 305 316 411 37 30 70
55 73 55 3 0 23 12 44 26 72 49 276 133 358 147 11 2 31 7 45 11 88 24 219 34
400 31 107 -2 213 -7 235 -10z m-179 -3238 c6 -3 23 -8 38 -11 59 -11 158 -67
216 -122 33 -31 60 -62 60 -67 0 -6 6 -18 14 -26 21 -23 57 -119 64 -171 42
-284 -105 -525 -358 -591 -63 -16 -205 -20 -265 -7 -189 40 -342 187 -385 368
-13 53 -16 181 -6 229 46 214 206 370 411 400 58 9 197 7 211 -2z"/>
</g>
</svg>
