<?xml version="1.0" encoding="iso-8859-1"?>
<!-- Generator: Adobe Illustrator 18.0.0, SVG Export Plug-In . SVG Version: 6.00 Build 0)  -->
<!DOCTYPE svg PUBLIC "-//W3C//DTD SVG 1.1//EN" "http://www.w3.org/Graphics/SVG/1.1/DTD/svg11.dtd">
<svg version="1.1" id="Capa_1" xmlns="http://www.w3.org/2000/svg" xmlns:xlink="http://www.w3.org/1999/xlink" x="0px" y="0px"
	 viewBox="0 0 58 58" style="enable-background:new 0 0 58 58;" xml:space="preserve">
<g>
	<path style="fill:#0391FD;" d="M53,3.247H5c-2.722,0-5,2.277-5,5v33c0,2.723,2.278,5,5,5h13.578l-3.323-3.289
		c-0.393-0.389-0.396-1.022-0.007-1.415c0.389-0.392,1.021-0.396,1.415-0.007l4.042,4c0.007,0.007,0.01,0.018,0.017,0.025
		c0.007,0.007,0.016,0.01,0.023,0.017L29,54.753l8.257-9.174c0.031-0.034,0.072-0.05,0.106-0.079l4.004-3.963
		c0.394-0.388,1.026-0.384,1.415,0.007c0.388,0.393,0.385,1.026-0.007,1.415l-3.324,3.289H53c2.722,0,5-2.277,5-5v-33
		C58,5.525,55.722,3.247,53,3.247z"/>
	<path style="fill:#FFFFFF;" d="M26,18.247H11c-0.553,0-1-0.448-1-1s0.447-1,1-1h15c0.553,0,1,0.448,1,1S26.553,18.247,26,18.247z"
		/>
	<path style="fill:#FFFFFF;" d="M45,26.247H11c-0.553,0-1-0.448-1-1s0.447-1,1-1h34c0.553,0,1,0.448,1,1S45.553,26.247,45,26.247z"
		/>
	<path style="fill:#FFFFFF;" d="M45,34.247H11c-0.553,0-1-0.448-1-1s0.447-1,1-1h34c0.553,0,1,0.448,1,1S45.553,34.247,45,34.247z"
		/>
</g>
<g>
</g>
<g>
</g>
<g>
</g>
<g>
</g>
<g>
</g>
<g>
</g>
<g>
</g>
<g>
</g>
<g>
</g>
<g>
</g>
<g>
</g>
<g>
</g>
<g>
</g>
<g>
</g>
<g>
</g>
</svg>
