<svg width="48" height="48" xmlns="http://www.w3.org/2000/svg">

 <g>
  <title>background</title>
  <rect fill="none" id="canvas_background" height="402" width="582" y="-1" x="-1"/>
 </g>
 <g>
  <title>Layer 1</title>
  <circle id="svg_1" r="24" fill="#f1f1f2" cy="24" cx="24"/>
  <path id="svg_2" fill="#3a3542" d="m31.2,12.385833l-14.4,0c-2.5,0 -4.5,2 -4.5,4.5l0,4.8l0,9.6c0,2.5 2,4.5 4.5,4.5l14.4,0c2.5,0 4.5,-2 4.5,-4.5l0,-9.6l0,-4.8c0,-2.5 -2,-4.5 -4.5,-4.5zm1.3,2.7l0.5,0l0,0.5l0,3.5l-4,0l0,-4l3.5,0zm-11.8,6.6c0.7,-1 2,-1.7 3.3,-1.7s2.6,0.7 3.3,1.7c0.5,0.7 0.8,1.5 0.8,2.4c0,2.3 -1.9,4.1 -4.1,4.1s-4.1,-1.8 -4.1,-4.1c0,-0.9 0.3,-1.7 0.8,-2.4zm12.7,9.6c0,1.2 -1,2.2 -2.2,2.2l-14.4,0c-1.2,0 -2.2,-1 -2.2,-2.2l0,-9.6l3.5,0c-0.3,0.7 -0.5,1.6 -0.5,2.4c0,3.5 2.9,6.4 6.4,6.4c3.5,0 6.4,-2.9 6.4,-6.4c0,-0.8 -0.2,-1.7 -0.5,-2.4l3.5,0l0,9.6z"/>
 </g>
</svg>